<svg width="20" height="20" viewBox="0 0 20 20" fill="none" xmlns="http://www.w3.org/2000/svg">
<path d="M19.6576 3.57713C19.4756 1.87157 18.1285 0.524271 16.4227 0.342394C12.1451 -0.114131 7.85492 -0.114131 3.57742 0.342394C1.87164 0.524424 0.524445 1.87157 0.342407 3.57713C-0.114136 7.85445 -0.114136 12.1446 0.342407 16.4219C0.524445 18.1276 1.87164 19.4748 3.57727 19.6568C7.85477 20.1133 12.1451 20.1133 16.4227 19.6568C18.1285 19.4748 19.4756 18.1276 19.6576 16.4219C20.1141 12.1446 20.1141 7.85461 19.6576 3.57713Z" fill="url(#paint0_radial_0_167)"/>
<path d="M18.5699 4.30052C18.4085 2.78706 17.2131 1.59158 15.6994 1.43C11.9037 1.02504 8.0966 1.02504 4.30083 1.43C2.78731 1.59158 1.59178 2.78706 1.43019 4.30052C1.02522 8.09614 1.02522 11.9031 1.43019 15.6985C1.59178 17.2121 2.78731 18.4076 4.30083 18.5691C8.0966 18.9742 11.9037 18.9742 15.6993 18.5691C17.213 18.4076 18.4085 17.2121 18.5699 15.6985C18.9751 11.9031 18.9751 8.09614 18.5699 4.30052Z" fill="url(#paint1_linear_0_167)"/>
<path d="M0.299316 16.0065C0.313049 16.1448 0.32724 16.283 0.342041 16.4212C0.524078 18.1268 1.87128 19.474 3.57706 19.656C7.85455 20.1125 12.1449 20.1125 16.4224 19.656C18.1281 19.474 19.4752 18.1268 19.6572 16.4212C19.672 16.283 19.6862 16.1448 19.7001 16.0065H0.299316Z" fill="url(#paint2_linear_0_167)"/>
<path d="M19.6575 16.4227C19.9029 14.1243 20.0161 11.8223 19.9978 9.52065L15.4262 4.9493C14.8551 4.29732 14.0209 3.89038 13.0407 3.85513C11.0248 3.7825 9.00259 3.78617 6.98645 3.85544C5.31195 3.91311 4.14099 5.03856 3.8407 6.6927C3.78775 6.98474 3.75601 7.2806 3.71436 7.57477V12.4241C3.7374 12.5813 3.77127 12.7377 3.7818 12.8958C3.84894 13.9019 4.26245 14.7637 4.92453 15.3467L9.57663 19.9984C11.8597 20.0145 14.1428 19.9009 16.4226 19.6576C18.1284 19.4755 19.4755 18.1284 19.6575 16.4227Z" fill="url(#paint3_linear_0_167)"/>
<path d="M19.6574 16.421C19.4756 18.1264 18.1281 19.4738 16.4226 19.6557C14.1431 19.8989 11.8594 20.0126 9.57672 19.9966L4.93164 15.3517C5.47012 15.823 6.17203 16.11 6.98654 16.1407C9.00223 16.2164 11.0249 16.2144 13.0406 16.1418C14.8637 16.0759 16.183 14.7266 16.2399 12.9035C16.3007 10.9679 16.3007 9.02718 16.2399 7.09153C16.214 6.2505 15.9187 5.51048 15.4292 4.9505L19.9979 9.51895C20.0159 11.8203 19.9026 14.1227 19.6574 16.421Z" fill="url(#paint4_linear_0_167)"/>
<path d="M12.3602 7.83458C11.7746 7.19694 10.9343 6.79688 10.0003 6.79688C8.2312 6.79688 6.79688 8.23114 6.79688 10.0002C6.79688 10.9341 7.19696 11.7744 7.83463 12.36L15.2463 19.7714C15.6386 19.7372 16.0309 19.6992 16.4229 19.6574C18.1287 19.4754 19.4759 18.1282 19.6579 16.4225C19.6997 16.0305 19.7377 15.6382 19.7719 15.2459L12.3602 7.83458Z" fill="url(#paint5_linear_0_167)"/>
<path d="M19.9613 12.1538L13.9964 6.1892C13.8572 6.00656 13.6379 5.888 13.3906 5.888C12.9698 5.888 12.6284 6.22917 12.6284 6.65015C12.6284 6.89748 12.747 7.11674 12.9296 7.2559L19.8547 14.1808C19.9017 13.5053 19.9372 12.8296 19.9613 12.1538Z" fill="url(#paint6_linear_0_167)"/>
<path d="M3.71436 7.57477C3.75601 7.2806 3.78775 6.98474 3.8407 6.6927C4.14084 5.03856 5.31195 3.91311 6.98645 3.85544C9.00259 3.78617 11.0248 3.7825 13.0407 3.85513C14.8632 3.92074 16.1831 5.27018 16.24 7.09323C16.3006 9.02903 16.3006 10.9696 16.24 12.9054C16.1831 14.7284 14.8636 16.0777 13.0408 16.1435C11.025 16.2162 9.00229 16.2181 6.9866 16.1424C5.16379 16.0739 3.90372 14.7214 3.7818 12.8956C3.77127 12.7377 3.7374 12.5811 3.71436 12.424C3.71436 10.8075 3.71436 9.19107 3.71436 7.57477ZM10.0016 15.063C10.9241 15.063 11.8476 15.0907 12.7689 15.0566C14.2135 15.0031 15.102 14.141 15.1357 12.6979C15.1775 10.8997 15.1775 9.09907 15.1357 7.30074C15.102 5.85792 14.2129 4.97569 12.7689 4.94503C10.9362 4.90627 9.10147 4.90658 7.26874 4.94503C5.83578 4.97508 4.94467 5.83946 4.90576 7.26641C4.85632 9.08732 4.85632 10.9114 4.90576 12.7323C4.94467 14.1591 5.83578 15.0035 7.26889 15.0566C8.17862 15.0905 9.09064 15.063 10.0016 15.063Z" fill="url(#paint7_linear_0_167)"/>
<path d="M3.71436 7.57477C3.75601 7.2806 3.78775 6.98474 3.8407 6.6927C4.14084 5.03856 5.31195 3.91311 6.98645 3.85544C9.00259 3.78617 11.0248 3.7825 13.0407 3.85513C14.8632 3.92074 16.1831 5.27018 16.24 7.09323C16.3006 9.02903 16.3006 10.9696 16.24 12.9054C16.1831 14.7284 14.8636 16.0777 13.0408 16.1435C11.025 16.2162 9.00229 16.2181 6.9866 16.1424C5.16379 16.0739 3.90372 14.7214 3.7818 12.8956C3.77127 12.7377 3.7374 12.5811 3.71436 12.424C3.71436 10.8075 3.71436 9.19107 3.71436 7.57477ZM10.0016 15.063C10.9241 15.063 11.8476 15.0907 12.7689 15.0566C14.2135 15.0031 15.102 14.141 15.1357 12.6979C15.1775 10.8997 15.1775 9.09907 15.1357 7.30074C15.102 5.85792 14.2129 4.97569 12.7689 4.94503C10.9362 4.90627 9.10147 4.90658 7.26874 4.94503C5.83578 4.97508 4.94467 5.83946 4.90576 7.26641C4.85632 9.08732 4.85632 10.9114 4.90576 12.7323C4.94467 14.1591 5.83578 15.0035 7.26889 15.0566C8.17862 15.0905 9.09064 15.063 10.0016 15.063Z" fill="white"/>
<path d="M10.0003 6.7962C8.2312 6.7962 6.79688 8.23032 6.79688 9.99935C6.79688 11.7685 8.2312 13.2027 10.0003 13.2027C11.7696 13.2027 13.2037 11.7685 13.2037 9.99935C13.2037 8.23032 11.7696 6.7962 10.0003 6.7962ZM10.0003 12.0998C8.84018 12.0998 7.89978 11.1594 7.89978 9.99935C7.89978 8.83927 8.84018 7.89891 10.0003 7.89891C11.1604 7.89891 12.1008 8.83927 12.1008 9.99935C12.1008 11.1594 11.1604 12.0998 10.0003 12.0998Z" fill="white"/>
<path d="M14.1526 6.64948C14.1526 7.0703 13.8114 7.41147 13.3906 7.41147C12.9698 7.41147 12.6284 7.0703 12.6284 6.64948C12.6284 6.2285 12.9698 5.88733 13.3906 5.88733C13.8114 5.88733 14.1526 6.2285 14.1526 6.64948Z" fill="white"/>
<defs>
<radialGradient id="paint0_radial_0_167" cx="0" cy="0" r="1" gradientUnits="userSpaceOnUse" gradientTransform="translate(4.09989 17.4777) scale(22.0565 22.0556)">
<stop stop-color="#FAE100"/>
<stop offset="0.0544" stop-color="#FADC04"/>
<stop offset="0.1167" stop-color="#FBCE0E"/>
<stop offset="0.1829" stop-color="#FCB720"/>
<stop offset="0.2514" stop-color="#FE9838"/>
<stop offset="0.3054" stop-color="#FF7950"/>
<stop offset="0.4922" stop-color="#FF1C74"/>
<stop offset="1" stop-color="#6C1CD1"/>
</radialGradient>
<linearGradient id="paint1_linear_0_167" x1="7.67095" y1="8.68948" x2="-26.2108" y2="-10.3697" gradientUnits="userSpaceOnUse">
<stop stop-color="#A1B5D8" stop-opacity="0"/>
<stop offset="0.3094" stop-color="#90A2BD" stop-opacity="0.309804"/>
<stop offset="0.7554" stop-color="#7C8B9C" stop-opacity="0.756863"/>
<stop offset="1" stop-color="#748290"/>
</linearGradient>
<linearGradient id="paint2_linear_0_167" x1="9.99965" y1="17.6534" x2="9.99965" y2="20.7708" gradientUnits="userSpaceOnUse">
<stop stop-color="#FAE100" stop-opacity="0"/>
<stop offset="0.3068" stop-color="#FCA800" stop-opacity="0.305882"/>
<stop offset="0.6275" stop-color="#FE7300" stop-opacity="0.627451"/>
<stop offset="0.8685" stop-color="#FF5200" stop-opacity="0.866667"/>
<stop offset="1" stop-color="#FF4500"/>
</linearGradient>
<linearGradient id="paint3_linear_0_167" x1="8.86211" y1="8.83432" x2="3.91263" y2="3.88464" gradientUnits="userSpaceOnUse">
<stop stop-color="#833AB4" stop-opacity="0"/>
<stop offset="1" stop-color="#833AB4"/>
</linearGradient>
<linearGradient id="paint4_linear_0_167" x1="13.7069" y1="18.2907" x2="11.2366" y2="6.64461" gradientUnits="userSpaceOnUse">
<stop stop-color="#833AB4" stop-opacity="0"/>
<stop offset="1" stop-color="#833AB4"/>
</linearGradient>
<linearGradient id="paint5_linear_0_167" x1="14.6474" y1="14.6471" x2="4.72496" y2="4.72424" gradientUnits="userSpaceOnUse">
<stop stop-color="#833AB4" stop-opacity="0"/>
<stop offset="1" stop-color="#833AB4"/>
</linearGradient>
<linearGradient id="paint6_linear_0_167" x1="15.3832" y1="8.64261" x2="12.102" y2="5.36133" gradientUnits="userSpaceOnUse">
<stop stop-color="#833AB4" stop-opacity="0"/>
<stop offset="1" stop-color="#833AB4"/>
</linearGradient>
<linearGradient id="paint7_linear_0_167" x1="13.9709" y1="6.05715" x2="5.8808" y2="14.1476" gradientUnits="userSpaceOnUse">
<stop stop-color="#833AB4"/>
<stop offset="0.0922" stop-color="#9C3495"/>
<stop offset="0.2927" stop-color="#DC2546"/>
<stop offset="0.392" stop-color="#FD1D1D"/>
<stop offset="0.5589" stop-color="#FC6831"/>
<stop offset="0.6887" stop-color="#FC9B40"/>
<stop offset="0.7521" stop-color="#FCAF45"/>
<stop offset="0.7806" stop-color="#FDB750"/>
<stop offset="0.8656" stop-color="#FECB6A"/>
<stop offset="0.9415" stop-color="#FFD87A"/>
<stop offset="1" stop-color="#FFDC80"/>
</linearGradient>
</defs>
</svg>
